<svg xmlns="http://www.w3.org/2000/svg" viewBox="0 0 48 48" fill="none">
  <rect width="48" height="48" rx="10" fill="url(#grad1)"/>
  <defs>
    <linearGradient id="grad1" x1="0" y1="0" x2="48" y2="48">
      <stop offset="0%" stop-color="#0E7490"/>
      <stop offset="100%" stop-color="#065F46"/>
    </linearGradient>
  </defs>
  <!-- City skyline -->
  <rect x="8" y="22" width="5" height="14" rx="1" fill="rgba(255,255,255,0.9)"/>
  <rect x="14" y="17" width="5" height="19" rx="1" fill="rgba(255,255,255,0.75)"/>
  <rect x="20" y="14" width="5" height="22" rx="1" fill="rgba(255,255,255,0.9)"/>
  <rect x="26" y="19" width="5" height="17" rx="1" fill="rgba(255,255,255,0.75)"/>
  <rect x="32" y="24" width="5" height="12" rx="1" fill="rgba(255,255,255,0.9)"/>
  <!-- Water wave -->
  <path d="M4 38 Q12 34, 20 38 Q28 42, 36 38 Q40 36, 44 38 L44 44 Q44 46 42 46 L6 46 Q4 46 4 44 Z" fill="rgba(255,255,255,0.35)"/>
  <path d="M4 40 Q12 36, 20 40 Q28 44, 36 40 Q40 38, 44 40 L44 44 Q44 46 42 46 L6 46 Q4 46 4 44 Z" fill="rgba(255,255,255,0.2)"/>
  <!-- SDG 11 badge -->
  <circle cx="38" cy="10" r="7" fill="#F59E0B"/>
  <text x="38" y="13" text-anchor="middle" font-size="8" font-weight="bold" fill="white" font-family="Arial">11</text>
</svg>
